#!OML:ASF E:/inclinewalkrobotboard/Project1/Captureday1/Session1/subject1.ASF
:FULLY-SPECIFIED
:DEGREES
376
root 0 0 0 -3.365121594651021 -29.577745392536368 0.8815116920092803
lowerback 11.731925686194705 0.45665330112923885 1.8791792829506597
upperback 1.9234301145352461 0.7172008131005491 0.8646504522057616
thorax -4.423006414521636 0.3230917693266456 -0.282270338170811
lowerneck -11.86463192243992 -1.0292292040803388 -3.518017606367346
upperneck 3.299165271015985 -0.7973466358416266 2.1750306163411226
head 2.9961886631736707 -0.41659122929250625 1.189111054755187
rclavicle -3.0752440622300986E-15 7.600761301807746E-17
rhumerus -7.6218936368540415 -1.5846521738383288 -69.79598642525667
rradius 14.043109215806858
rwrist 39.99767644145218
rhand -7.586180240819262 18.332844957342985
rfingers 7.125020000000033
rthumb 18.266502461521096 -11.336915698638457
lclavicle 4.590508902492927E-16 -1.3936837315343452E-16
lhumerus 15.960178405066706 -34.31667658319269 71.62211121082093
lradius 124.88041547463047
lwrist 52.89163973006122
lhand -26.012337963861757 42.67561491654821
lfingers 7.1395244616404385
lthumb 0.6705915469412176 53.003317936442066
rfemur -20.990574701081368 4.783771584199753 15.28998457950831
rtibia 49.50812176801393
rfoot -10.907649823197543 -12.77043894611866
rtoes -2.0059126863585997
lfemur -24.360297890633582 1.125654720200218 -11.278486319179631
ltibia 53.18206567258132
lfoot -8.951089782083137 0.7000431911720364
ltoes -9.783780438053853
377
root 0 0 0 -3.3651336519174824 -29.578092223014153 0.8816557911543955
lowerback 11.732005798487812 0.45664124310474363 1.879167169858811
upperback 1.923482788479015 0.7171795134929382 0.8646515149969023
thorax -4.42299422274084 0.3230810519325783 -0.28226222952558383
lowerneck -11.864531768236656 -1.029155562829317 -3.5179923983377335
upperneck 3.2991086843702107 -0.7972435093732466 2.174979189069128
head 2.99614570051535 -0.416545867810868 1.1891011601251766
rclavicle -3.0752533202097173E-15 7.600735829761752E-17
rhumerus -7.621879782686934 -1.5847229824625462 -69.79595539674769
rradius 14.0429992049716
rwrist 39.99775861475092
rhand -7.586150881032697 18.332896140453194
rfingers 7.125020000000033
rthumb 18.266531122147917 -11.336865587948253
lclavicle 4.590414152828885E-16 -1.3935916326865997E-16
lhumerus 15.960253846247163 -34.31672377261576 71.62209095384236
lradius 124.8805689366599
lwrist 52.89177375992351
lhand -26.012369672257282 42.67565319319364
lfingers 7.139524625402578
lthumb 0.6705616103046648 53.003297757037444
rfemur -20.991060557306024 4.783680562611856 15.289745990137245
rtibia 49.50851179806959
rfoot -10.907420854297055 -12.77036733367891
rtoes -2.005956011254172
lfemur -24.360505922954893 1.1256464777608013 -11.278421269480345
ltibia 53.18226068684852
lfoot -8.950911507893622 0.6998660942538883
ltoes -9.783864423012382
378
root 0 0 0 -3.3651457127193947 -29.578423021843154 0.8817894624721528
lowerback 11.732082138012936 0.45662961534805896 1.879155382224267
upperback 1.9235321489227521 0.717159059292395 0.86465276310556
thorax -4.42298350719739 0.3230707548330859 -0.2822540799229463
lowerneck -11.86443844380635 -1.0290893716060427 -3.517970512983566
upperneck 3.2990499144817296 -0.797150740241054 2.1749350279197035
head 2.996104013294352 -0.4165051765009131 1.189093170684917
rclavicle -3.075262198805609E-15 7.600714931697514E-17
rhumerus -7.621868198167478 -1.5847900632593799 -69.79592654591991
rradius 14.04289278416951
rwrist 39.99783793575749
rhand -7.586122061147057 18.332945680723192
rfingers 7.125020000000033
rthumb 18.266559235134245 -11.336817065352012
lclavicle 4.590320635415144E-16 -1.3935051452970656E-16
lhumerus 15.96032120309646 -34.316767994112205 71.62207374054572
lradius 124.88070914743315
lwrist 52.891895357135795
lhand -26.012397838332333 42.675688094468825
lfingers 7.13952477569075
lthumb 0.6705350383056281 53.00327949462322
rfemur -20.991503154464336 4.7835979485573334 15.289528484233315
rtibia 49.508865916977754
rfoot -10.907212986732157 -12.77030307283173
rtoes -2.005995648216754
lfemur -24.360702508417205 1.1256406506779353 -11.278360390520426
ltibia 53.18244721702341
lfoot -8.950745566019643 0.6997001364795823
ltoes -9.783943611153978
379
root 0 0 0 -3.365157676149313 -29.578737740685355 0.8819133965970464
lowerback 11.732154703766746 0.45661843996704166 1.8791439632379634
upperback 1.9235783520495782 0.7171394750912286 0.864654154163486
thorax -4.42297409811389 0.3230608914274644 -0.2822459648523549
lowerneck -11.864351552203741 -1.0290298799393605 -3.517951548808549
upperneck 3.2989898770520583 -0.7970672917988071 2.1748972200528938
head 2.9960637429687225 -0.41646867799711806 1.1890868152719967
rclavicle -3.0752706913308295E-15 7.600697977324881E-17
rhumerus -7.621858555802776 -1.5848535503210073 -69.79589971019136
rradius 14.042790203067476
rwrist 39.9979142536783
rhand -7.586093932967913 18.332993461052084
rfingers 7.125020000000033
rthumb 18.266586655963046 -11.33677024918121
lclavicle 4.590228975509075E-16 -1.393424037023006E-16
lhumerus 15.960381329666983 -34.316809385567076 71.622059175841
lradius 124.88083724014413
lwrist 52.8920056749444
lhand -26.0124228492098 42.675719916303656
lfingers 7.139524913580819
lthumb 0.6705114615495038 53.00326296574504
rfemur -20.991906492526386 4.783522884848781 15.28933015265897
rtibia 49.50918761725332
rfoot -10.907024165617095 -12.770245407154963
rtoes -2.006031873843962
lfemur -24.3608879762849 1.1256368757562827 -11.27830347641645
ltibia 53.18262518743416
lfoot -8.950591219391592 0.6995447658000113
ltoes -9.784018182710582
